<svg id="svg" version="1.1" xmlns="http://www.w3.org/2000/svg" xmlns:xlink="http://www.w3.org/1999/xlink" width="400" height="400" viewBox="0, 0, 400,400"><g id="svgg"><path id="path0" d="M185.417 54.837 C 182.346 55.047,178.361 55.574,176.562 56.009 C 174.763 56.444,172.557 56.800,171.660 56.800 C 170.764 56.800,169.078 57.149,167.915 57.575 C 166.752 58.001,164.900 58.475,163.800 58.627 C 162.700 58.779,161.301 59.157,160.690 59.467 C 160.080 59.777,158.566 60.218,157.327 60.447 C 156.088 60.676,154.698 61.102,154.237 61.393 C 153.777 61.683,152.770 62.047,152.000 62.200 C 151.230 62.353,150.240 62.702,149.800 62.976 C 149.360 63.250,148.460 63.604,147.800 63.764 C 146.494 64.081,144.078 65.115,141.100 66.632 C 140.055 67.164,138.862 67.600,138.449 67.600 C 138.036 67.600,137.482 67.861,137.217 68.180 C 136.952 68.498,136.075 68.971,135.268 69.230 C 134.461 69.489,133.530 69.910,133.200 70.166 C 132.870 70.422,131.970 70.943,131.200 71.324 C 130.430 71.705,129.080 72.457,128.200 72.994 C 127.320 73.532,126.046 74.238,125.368 74.563 C 124.691 74.888,123.904 75.434,123.619 75.777 C 123.335 76.120,122.882 76.400,122.612 76.400 C 122.343 76.400,121.707 76.760,121.200 77.200 C 120.693 77.640,120.159 78.000,120.014 78.000 C 119.869 78.000,119.391 78.336,118.950 78.746 C 118.510 79.156,117.711 79.723,117.175 80.006 C 115.585 80.843,106.327 87.987,104.543 89.752 C 104.071 90.218,102.089 92.040,100.137 93.800 C 95.841 97.674,87.895 106.373,84.427 111.000 C 83.767 111.880,82.959 112.960,82.631 113.400 C 82.302 113.840,81.614 114.740,81.102 115.400 C 80.148 116.627,76.939 121.488,75.424 124.000 C 74.960 124.770,74.359 125.760,74.089 126.200 C 73.819 126.640,73.414 127.429,73.189 127.952 C 72.964 128.476,72.425 129.404,71.990 130.014 C 71.556 130.624,71.200 131.330,71.200 131.583 C 71.200 131.836,70.750 132.705,70.200 133.514 C 69.650 134.323,69.200 135.276,69.200 135.631 C 69.200 135.986,68.840 136.602,68.400 137.000 C 67.960 137.398,67.600 137.993,67.600 138.322 C 67.600 138.651,67.170 139.838,66.644 140.960 C 64.596 145.332,64.045 146.644,63.773 147.800 C 63.618 148.460,63.260 149.450,62.977 150.000 C 62.400 151.123,61.350 154.191,60.718 156.600 C 60.487 157.480,59.967 159.190,59.563 160.400 C 59.158 161.610,58.648 163.500,58.428 164.600 C 58.209 165.700,57.769 167.680,57.449 169.000 C 57.130 170.320,56.677 172.570,56.442 174.000 C 56.208 175.430,55.845 177.500,55.636 178.600 C 53.986 187.291,54.210 219.827,55.943 223.102 C 56.146 223.486,56.532 225.510,56.800 227.600 C 57.068 229.690,57.454 231.714,57.657 232.099 C 57.860 232.483,58.210 233.833,58.433 235.099 C 58.805 237.202,59.447 239.474,61.061 244.400 C 61.386 245.390,61.896 247.065,62.195 248.123 C 62.495 249.180,62.912 250.260,63.124 250.523 C 63.335 250.785,63.641 251.630,63.804 252.400 C 63.967 253.170,64.418 254.430,64.806 255.200 C 66.479 258.519,67.600 261.123,67.600 261.691 C 67.600 262.027,67.861 262.518,68.180 262.783 C 68.498 263.048,68.971 263.925,69.230 264.732 C 69.489 265.539,69.930 266.470,70.211 266.800 C 70.491 267.130,71.010 268.030,71.363 268.800 C 71.717 269.570,72.442 270.920,72.975 271.800 C 73.509 272.680,74.234 273.940,74.587 274.600 C 75.843 276.949,79.712 282.950,81.093 284.691 C 81.482 285.180,82.109 285.990,82.486 286.491 C 89.171 295.352,96.826 303.745,103.381 309.401 C 104.910 310.720,106.464 312.070,106.833 312.400 C 107.540 313.032,108.376 313.674,111.000 315.605 C 111.880 316.252,112.909 317.081,113.288 317.448 C 113.666 317.814,114.319 318.313,114.739 318.557 C 115.159 318.801,116.810 319.900,118.408 321.000 C 121.526 323.146,123.601 324.453,125.200 325.277 C 125.750 325.561,126.804 326.195,127.543 326.688 C 128.282 327.180,129.812 328.047,130.943 328.614 C 132.074 329.181,133.540 329.934,134.200 330.287 C 136.029 331.266,136.888 331.697,138.200 332.290 C 138.860 332.588,140.066 333.185,140.879 333.616 C 141.693 334.047,142.593 334.406,142.879 334.413 C 143.166 334.419,144.300 334.868,145.400 335.409 C 146.500 335.950,147.642 336.394,147.938 336.396 C 148.234 336.398,148.954 336.654,149.538 336.964 C 151.294 337.896,159.705 340.499,163.400 341.255 C 164.500 341.480,166.570 341.997,168.000 342.405 C 171.525 343.409,175.500 343.781,176.231 343.174 C 177.139 342.421,177.080 243.938,176.171 243.029 C 175.619 242.477,173.436 242.400,158.236 242.400 L 140.928 242.400 140.464 241.381 C 139.771 239.861,139.821 202.177,140.518 200.800 L 141.023 199.800 158.376 199.696 C 169.927 199.626,175.900 199.449,176.242 199.165 C 176.643 198.832,176.792 194.666,176.917 180.269 C 177.113 157.738,177.434 154.460,180.273 146.000 C 180.605 145.010,181.099 143.480,181.371 142.600 C 181.828 141.125,182.916 138.761,184.790 135.176 C 185.200 134.393,185.819 133.516,186.167 133.227 C 186.515 132.938,186.800 132.525,186.800 132.309 C 186.800 131.932,187.831 130.546,189.716 128.389 C 190.202 127.833,191.051 126.843,191.602 126.189 C 193.966 123.384,199.648 119.311,204.800 116.728 C 206.010 116.121,207.215 115.619,207.477 115.613 C 207.740 115.606,208.550 115.257,209.277 114.838 C 210.005 114.419,211.410 113.948,212.400 113.792 C 213.390 113.635,214.558 113.319,214.996 113.088 C 217.973 111.521,237.798 110.143,242.600 111.169 C 243.700 111.404,248.156 111.862,252.502 112.185 C 256.847 112.509,260.751 112.959,261.175 113.187 C 261.600 113.414,262.496 113.600,263.166 113.600 C 264.871 113.600,264.837 113.181,264.711 132.600 L 264.600 149.800 253.600 150.046 C 241.858 150.309,238.093 150.720,235.708 151.998 C 234.885 152.439,234.029 152.803,233.806 152.807 C 233.252 152.817,230.133 154.958,228.954 156.137 C 226.295 158.796,224.144 163.304,223.613 167.329 C 223.008 171.914,223.064 198.504,223.680 199.120 C 224.040 199.480,228.944 199.600,243.290 199.600 L 262.420 199.600 262.796 200.589 C 263.253 201.792,262.915 206.269,262.161 209.000 C 261.857 210.100,261.425 212.800,261.201 215.000 C 260.978 217.200,260.539 220.170,260.226 221.600 C 259.913 223.030,259.463 225.910,259.226 228.000 C 258.988 230.090,258.529 232.970,258.205 234.400 C 257.882 235.830,257.613 237.935,257.608 239.077 C 257.594 242.531,258.283 242.400,240.173 242.400 C 225.520 242.400,224.482 242.447,223.862 243.131 C 222.874 244.223,222.838 342.402,223.825 343.221 C 224.629 343.888,231.306 343.179,233.135 342.234 C 233.809 341.885,234.914 341.600,235.590 341.600 C 236.267 341.600,237.850 341.232,239.110 340.782 C 240.369 340.332,242.120 339.803,243.000 339.607 C 243.880 339.411,246.130 338.690,248.000 338.006 C 249.870 337.322,252.003 336.577,252.739 336.352 C 253.475 336.126,254.645 335.595,255.339 335.172 C 256.033 334.749,256.891 334.402,257.246 334.401 C 257.601 334.401,258.321 334.067,258.846 333.661 C 259.371 333.255,260.329 332.793,260.976 332.634 C 261.622 332.476,262.640 331.999,263.237 331.573 C 263.835 331.148,264.505 330.800,264.728 330.800 C 265.595 330.800,275.607 325.041,281.240 321.301 C 282.648 320.367,284.140 319.377,284.555 319.101 C 284.971 318.825,286.479 317.655,287.906 316.500 C 289.334 315.345,290.614 314.399,290.751 314.398 C 290.888 314.397,291.642 313.812,292.427 313.098 C 293.212 312.384,295.012 310.776,296.427 309.524 C 304.581 302.309,315.420 290.428,318.200 285.657 C 318.420 285.280,318.832 284.707,319.115 284.385 C 319.564 283.875,322.253 279.895,323.400 278.045 C 323.620 277.690,324.490 276.290,325.334 274.933 C 327.559 271.355,330.840 265.016,333.475 259.200 C 334.023 257.990,334.804 256.280,335.212 255.400 C 335.619 254.520,336.134 253.170,336.357 252.400 C 336.580 251.630,337.322 249.470,338.006 247.600 C 338.690 245.730,339.411 243.480,339.607 242.600 C 339.803 241.720,340.332 239.969,340.782 238.710 C 341.232 237.450,341.600 235.882,341.600 235.225 C 341.600 234.567,341.936 233.168,342.346 232.115 C 342.756 231.062,343.214 228.928,343.363 227.374 C 343.512 225.819,343.904 223.659,344.235 222.574 C 344.577 221.450,344.996 217.584,345.207 213.600 C 345.412 209.750,345.687 205.360,345.819 203.844 C 346.151 200.034,345.283 183.736,344.528 179.600 C 344.187 177.730,343.741 174.940,343.536 173.400 C 343.332 171.860,342.827 169.520,342.414 168.200 C 342.001 166.880,341.552 164.972,341.416 163.961 C 341.280 162.949,340.816 161.192,340.385 160.056 C 339.953 158.921,339.600 157.616,339.600 157.156 C 339.600 156.697,339.333 155.754,339.007 155.060 C 338.680 154.367,338.153 152.990,337.836 152.000 C 336.753 148.628,336.000 146.602,335.234 145.000 C 334.812 144.120,333.993 142.230,333.414 140.800 C 332.834 139.370,332.188 137.930,331.977 137.600 C 331.767 137.270,331.479 136.730,331.338 136.400 C 330.058 133.405,327.127 127.851,326.305 126.863 C 326.003 126.498,325.531 125.750,325.258 125.200 C 324.254 123.179,320.767 117.784,319.021 115.550 C 318.569 114.973,317.840 113.999,317.400 113.385 C 316.960 112.772,316.102 111.624,315.494 110.835 C 314.885 110.046,314.075 108.988,313.694 108.484 C 309.875 103.444,301.788 95.200,293.404 87.800 C 292.372 86.889,291.213 85.986,287.800 83.434 C 286.480 82.447,285.040 81.359,284.600 81.016 C 282.548 79.415,276.461 75.546,274.568 74.637 C 273.891 74.312,273.104 73.766,272.819 73.423 C 272.535 73.080,271.975 72.800,271.575 72.800 C 271.175 72.800,270.730 72.610,270.587 72.379 C 270.332 71.967,269.636 71.590,264.105 68.870 C 258.264 65.998,257.365 65.600,256.718 65.600 C 256.349 65.600,255.944 65.434,255.819 65.231 C 255.693 65.027,254.648 64.567,253.495 64.207 C 252.343 63.847,250.950 63.314,250.400 63.023 C 249.850 62.731,248.770 62.361,248.000 62.201 C 247.230 62.041,245.845 61.570,244.922 61.155 C 243.999 60.740,242.829 60.396,242.322 60.391 C 241.815 60.386,240.661 60.047,239.758 59.637 C 238.855 59.227,237.145 58.759,235.958 58.597 C 234.771 58.435,232.938 57.965,231.885 57.552 C 230.832 57.138,229.122 56.792,228.085 56.783 C 227.048 56.773,225.390 56.578,224.400 56.350 C 217.611 54.785,197.571 54.008,185.417 54.837 " stroke="none" fill="#1b74f4" fill-rule="evenodd"></path><path id="path1" d="M0.000 200.000 L 0.000 400.000 200.000 400.000 L 400.000 400.000 400.000 200.000 L 400.000 0.000 200.000 0.000 L 0.000 0.000 0.000 200.000 M219.000 55.376 C 220.980 55.684,223.410 56.122,224.400 56.350 C 225.390 56.578,227.048 56.773,228.085 56.783 C 229.122 56.792,230.832 57.138,231.885 57.552 C 232.938 57.965,234.771 58.435,235.958 58.597 C 237.145 58.759,238.855 59.227,239.758 59.637 C 240.661 60.047,241.815 60.386,242.322 60.391 C 242.829 60.396,243.999 60.740,244.922 61.155 C 245.845 61.570,247.230 62.041,248.000 62.201 C 248.770 62.361,249.850 62.731,250.400 63.023 C 250.950 63.314,252.343 63.847,253.495 64.207 C 254.648 64.567,255.693 65.027,255.819 65.231 C 255.944 65.434,256.349 65.600,256.718 65.600 C 257.365 65.600,258.264 65.998,264.105 68.870 C 269.636 71.590,270.332 71.967,270.587 72.379 C 270.730 72.610,271.175 72.800,271.575 72.800 C 271.975 72.800,272.535 73.080,272.819 73.423 C 273.104 73.766,273.891 74.312,274.568 74.637 C 276.461 75.546,282.548 79.415,284.600 81.016 C 285.040 81.359,286.480 82.447,287.800 83.434 C 291.213 85.986,292.372 86.889,293.404 87.800 C 301.788 95.200,309.875 103.444,313.694 108.484 C 314.075 108.988,314.885 110.046,315.494 110.835 C 316.102 111.624,316.960 112.772,317.400 113.385 C 317.840 113.999,318.569 114.973,319.021 115.550 C 320.767 117.784,324.254 123.179,325.258 125.200 C 325.531 125.750,326.003 126.498,326.305 126.863 C 327.127 127.851,330.058 133.405,331.338 136.400 C 331.479 136.730,331.767 137.270,331.977 137.600 C 332.188 137.930,332.834 139.370,333.414 140.800 C 333.993 142.230,334.812 144.120,335.234 145.000 C 336.000 146.602,336.753 148.628,337.836 152.000 C 338.153 152.990,338.680 154.367,339.007 155.060 C 339.333 155.754,339.600 156.697,339.600 157.156 C 339.600 157.616,339.953 158.921,340.385 160.056 C 340.816 161.192,341.280 162.949,341.416 163.961 C 341.552 164.972,342.001 166.880,342.414 168.200 C 342.827 169.520,343.332 171.860,343.536 173.400 C 343.741 174.940,344.187 177.730,344.528 179.600 C 345.283 183.736,346.151 200.034,345.819 203.844 C 345.687 205.360,345.412 209.750,345.207 213.600 C 344.996 217.584,344.577 221.450,344.235 222.574 C 343.904 223.659,343.512 225.819,343.363 227.374 C 343.214 228.928,342.756 231.062,342.346 232.115 C 341.936 233.168,341.600 234.567,341.600 235.225 C 341.600 235.882,341.232 237.450,340.782 238.710 C 340.332 239.969,339.803 241.720,339.607 242.600 C 339.411 243.480,338.690 245.730,338.006 247.600 C 337.322 249.470,336.580 251.630,336.357 252.400 C 336.134 253.170,335.619 254.520,335.212 255.400 C 334.804 256.280,334.023 257.990,333.475 259.200 C 330.840 265.016,327.559 271.355,325.334 274.933 C 324.490 276.290,323.620 277.690,323.400 278.045 C 322.253 279.895,319.564 283.875,319.115 284.385 C 318.832 284.707,318.420 285.280,318.200 285.657 C 315.420 290.428,304.581 302.309,296.427 309.524 C 295.012 310.776,293.212 312.384,292.427 313.098 C 291.642 313.812,290.888 314.397,290.751 314.398 C 290.614 314.399,289.334 315.345,287.906 316.500 C 286.479 317.655,284.971 318.825,284.555 319.101 C 284.140 319.377,282.648 320.367,281.240 321.301 C 275.607 325.041,265.595 330.800,264.728 330.800 C 264.505 330.800,263.835 331.148,263.237 331.573 C 262.640 331.999,261.622 332.476,260.976 332.634 C 260.329 332.793,259.371 333.255,258.846 333.661 C 258.321 334.067,257.601 334.401,257.246 334.401 C 256.891 334.402,256.033 334.749,255.339 335.172 C 254.645 335.595,253.475 336.126,252.739 336.352 C 252.003 336.577,249.870 337.322,248.000 338.006 C 246.130 338.690,243.880 339.411,243.000 339.607 C 242.120 339.803,240.369 340.332,239.110 340.782 C 237.850 341.232,236.267 341.600,235.590 341.600 C 234.914 341.600,233.809 341.885,233.135 342.234 C 231.306 343.179,224.629 343.888,223.825 343.221 C 222.838 342.402,222.874 244.223,223.862 243.131 C 224.482 242.447,225.520 242.400,240.173 242.400 C 258.283 242.400,257.594 242.531,257.608 239.077 C 257.613 237.935,257.882 235.830,258.205 234.400 C 258.529 232.970,258.988 230.090,259.226 228.000 C 259.463 225.910,259.913 223.030,260.226 221.600 C 260.539 220.170,260.978 217.200,261.201 215.000 C 261.425 212.800,261.857 210.100,262.161 209.000 C 262.915 206.269,263.253 201.792,262.796 200.589 L 262.420 199.600 243.290 199.600 C 228.944 199.600,224.040 199.480,223.680 199.120 C 223.064 198.504,223.008 171.914,223.613 167.329 C 224.144 163.304,226.295 158.796,228.954 156.137 C 230.133 154.958,233.252 152.817,233.806 152.807 C 234.029 152.803,234.885 152.439,235.708 151.998 C 238.093 150.720,241.858 150.309,253.600 150.046 L 264.600 149.800 264.711 132.600 C 264.837 113.181,264.871 113.600,263.166 113.600 C 262.496 113.600,261.600 113.414,261.175 113.187 C 260.751 112.959,256.847 112.509,252.502 112.185 C 248.156 111.862,243.700 111.404,242.600 111.169 C 237.798 110.143,217.973 111.521,214.996 113.088 C 214.558 113.319,213.390 113.635,212.400 113.792 C 211.410 113.948,210.005 114.419,209.277 114.838 C 208.550 115.257,207.740 115.606,207.477 115.613 C 205.981 115.652,198.531 120.102,194.802 123.184 C 193.593 124.183,192.153 125.535,191.602 126.189 C 191.051 126.843,190.202 127.833,189.716 128.389 C 187.831 130.546,186.800 131.932,186.800 132.309 C 186.800 132.525,186.515 132.938,186.167 133.227 C 185.819 133.516,185.200 134.393,184.790 135.176 C 182.916 138.761,181.828 141.125,181.371 142.600 C 181.099 143.480,180.605 145.010,180.273 146.000 C 177.434 154.460,177.113 157.738,176.917 180.269 C 176.792 194.666,176.643 198.832,176.242 199.165 C 175.900 199.449,169.927 199.626,158.376 199.696 L 141.023 199.800 140.518 200.800 C 139.821 202.177,139.771 239.861,140.464 241.381 L 140.928 242.400 158.236 242.400 C 173.436 242.400,175.619 242.477,176.171 243.029 C 177.080 243.938,177.139 342.421,176.231 343.174 C 175.500 343.781,171.525 343.409,168.000 342.405 C 166.570 341.997,164.500 341.480,163.400 341.255 C 159.705 340.499,151.294 337.896,149.538 336.964 C 148.954 336.654,148.234 336.398,147.938 336.396 C 147.642 336.394,146.500 335.950,145.400 335.409 C 144.300 334.868,143.166 334.419,142.879 334.413 C 142.593 334.406,141.693 334.047,140.879 333.616 C 140.066 333.185,138.860 332.588,138.200 332.290 C 136.888 331.697,136.029 331.266,134.200 330.287 C 133.540 329.934,132.074 329.181,130.943 328.614 C 129.812 328.047,128.282 327.180,127.543 326.688 C 126.804 326.195,125.750 325.561,125.200 325.277 C 123.601 324.453,121.526 323.146,118.408 321.000 C 116.810 319.900,115.159 318.801,114.739 318.557 C 114.319 318.313,113.666 317.814,113.288 317.448 C 112.909 317.081,111.880 316.252,111.000 315.605 C 108.376 313.674,107.540 313.032,106.833 312.400 C 106.464 312.070,104.910 310.720,103.381 309.401 C 96.826 303.745,89.171 295.352,82.486 286.491 C 82.109 285.990,81.482 285.180,81.093 284.691 C 79.712 282.950,75.843 276.949,74.587 274.600 C 74.234 273.940,73.509 272.680,72.975 271.800 C 72.442 270.920,71.717 269.570,71.363 268.800 C 71.010 268.030,70.491 267.130,70.211 266.800 C 69.930 266.470,69.489 265.539,69.230 264.732 C 68.971 263.925,68.498 263.048,68.180 262.783 C 67.861 262.518,67.600 262.027,67.600 261.691 C 67.600 261.123,66.479 258.519,64.806 255.200 C 64.418 254.430,63.967 253.170,63.804 252.400 C 63.641 251.630,63.335 250.785,63.124 250.523 C 62.912 250.260,62.495 249.180,62.195 248.123 C 61.896 247.065,61.386 245.390,61.061 244.400 C 59.447 239.474,58.805 237.202,58.433 235.099 C 58.210 233.833,57.860 232.483,57.657 232.099 C 57.454 231.714,57.068 229.690,56.800 227.600 C 56.532 225.510,56.146 223.486,55.943 223.102 C 54.210 219.827,53.986 187.291,55.636 178.600 C 55.845 177.500,56.208 175.430,56.442 174.000 C 56.677 172.570,57.130 170.320,57.449 169.000 C 57.769 167.680,58.209 165.700,58.428 164.600 C 58.648 163.500,59.158 161.610,59.563 160.400 C 59.967 159.190,60.487 157.480,60.718 156.600 C 61.350 154.191,62.400 151.123,62.977 150.000 C 63.260 149.450,63.618 148.460,63.773 147.800 C 64.045 146.644,64.596 145.332,66.644 140.960 C 67.170 139.838,67.600 138.651,67.600 138.322 C 67.600 137.993,67.960 137.398,68.400 137.000 C 68.840 136.602,69.200 135.986,69.200 135.631 C 69.200 135.276,69.650 134.323,70.200 133.514 C 70.750 132.705,71.200 131.836,71.200 131.583 C 71.200 131.330,71.556 130.624,71.990 130.014 C 72.425 129.404,72.964 128.476,73.189 127.952 C 73.414 127.429,73.819 126.640,74.089 126.200 C 74.359 125.760,74.960 124.770,75.424 124.000 C 76.939 121.488,80.148 116.627,81.102 115.400 C 81.614 114.740,82.302 113.840,82.631 113.400 C 86.208 108.605,86.897 107.784,93.594 100.332 C 95.241 98.499,98.185 95.560,100.137 93.800 C 102.089 92.040,104.071 90.218,104.543 89.752 C 106.327 87.987,115.585 80.843,117.175 80.006 C 117.711 79.723,118.510 79.156,118.950 78.746 C 119.391 78.336,119.869 78.000,120.014 78.000 C 120.159 78.000,120.693 77.640,121.200 77.200 C 121.707 76.760,122.343 76.400,122.612 76.400 C 122.882 76.400,123.335 76.120,123.619 75.777 C 123.904 75.434,124.691 74.888,125.368 74.563 C 126.046 74.238,127.320 73.532,128.200 72.994 C 129.080 72.457,130.430 71.705,131.200 71.324 C 131.970 70.943,132.870 70.422,133.200 70.166 C 133.530 69.910,134.461 69.489,135.268 69.230 C 136.075 68.971,136.952 68.498,137.217 68.180 C 137.482 67.861,138.036 67.600,138.449 67.600 C 138.862 67.600,140.055 67.164,141.100 66.632 C 144.078 65.115,146.494 64.081,147.800 63.764 C 148.460 63.604,149.360 63.250,149.800 62.976 C 150.240 62.702,151.230 62.353,152.000 62.200 C 152.770 62.047,153.777 61.683,154.237 61.393 C 154.698 61.102,156.088 60.676,157.327 60.447 C 158.566 60.218,160.080 59.777,160.690 59.467 C 161.301 59.157,162.700 58.779,163.800 58.627 C 164.900 58.475,166.752 58.001,167.915 57.575 C 169.078 57.149,170.764 56.800,171.660 56.800 C 172.557 56.800,174.763 56.444,176.562 56.009 C 183.164 54.413,210.200 54.010,219.000 55.376 " stroke="none" fill="#fcfcfc" fill-rule="evenodd"></path></g></svg>