<svg id="svg" version="1.1" xmlns="http://www.w3.org/2000/svg" xmlns:xlink="http://www.w3.org/1999/xlink" width="400" height="400" viewBox="0, 0, 400,400"><g id="svgg"><path id="path0" d="M185.445 3.890 C 185.275 4.061,183.306 4.329,181.068 4.487 C 176.543 4.806,171.924 5.342,168.000 6.002 C 166.570 6.243,164.410 6.537,163.200 6.655 C 161.990 6.774,160.829 7.035,160.620 7.235 C 160.411 7.436,159.567 7.600,158.744 7.600 C 157.921 7.600,157.148 7.761,157.026 7.958 C 156.905 8.155,156.129 8.412,155.303 8.530 C 150.998 9.145,149.208 9.596,138.200 12.833 C 135.716 13.564,130.827 15.317,128.000 16.492 C 126.747 17.012,125.779 17.383,124.000 18.023 C 122.081 18.714,112.238 23.209,109.800 24.508 C 109.360 24.743,108.100 25.418,107.000 26.009 C 105.900 26.600,103.423 27.919,101.495 28.939 C 99.566 29.960,96.628 31.696,94.965 32.798 C 93.302 33.899,91.855 34.800,91.749 34.800 C 91.000 34.800,77.977 44.218,71.566 49.396 C 63.901 55.587,51.886 67.438,46.606 74.017 C 45.289 75.658,43.376 77.990,42.355 79.200 C 37.624 84.805,28.224 98.815,24.106 106.400 C 23.449 107.610,22.314 109.680,21.583 111.000 C 19.379 114.984,16.785 120.338,14.317 126.000 C 12.753 129.587,9.200 139.332,9.200 140.034 C 9.200 140.429,9.020 140.864,8.800 141.000 C 8.580 141.136,8.400 141.599,8.400 142.029 C 8.400 142.459,8.238 143.123,8.039 143.505 C 7.840 143.887,7.460 145.010,7.193 146.000 C 6.927 146.990,6.570 148.160,6.400 148.600 C 5.936 149.801,4.659 154.681,4.201 157.000 C 4.071 157.660,3.778 158.920,3.550 159.800 C 3.321 160.680,3.040 162.076,2.925 162.903 C 2.810 163.729,2.555 164.505,2.358 164.626 C 2.161 164.748,2.000 165.791,2.000 166.944 C 2.000 168.097,1.836 169.211,1.635 169.420 C 1.435 169.629,1.172 170.790,1.052 172.000 C 0.933 173.210,0.660 175.640,0.446 177.400 C -0.032 181.334,-0.056 227.222,0.417 232.200 C 0.606 234.180,0.956 236.880,1.195 238.200 C 1.435 239.520,1.724 241.320,1.838 242.200 C 1.952 243.080,2.205 244.160,2.400 244.600 C 2.595 245.040,2.846 246.120,2.957 247.000 C 3.246 249.288,3.859 252.343,4.400 254.200 C 4.656 255.080,4.962 256.297,5.079 256.905 C 5.196 257.513,5.451 258.108,5.646 258.229 C 5.841 258.349,6.000 258.829,6.000 259.295 C 6.000 260.196,6.665 262.539,7.249 263.695 C 7.442 264.077,7.602 264.707,7.604 265.095 C 7.609 265.755,8.155 267.360,11.998 278.000 C 12.833 280.310,14.141 283.550,14.905 285.200 C 18.237 292.394,21.024 297.981,22.457 300.341 C 23.306 301.738,24.000 302.939,24.000 303.009 C 24.000 304.275,35.480 321.625,40.403 327.800 C 42.333 330.220,44.631 333.158,45.511 334.330 C 46.923 336.209,50.760 340.449,57.038 347.068 C 67.161 357.738,85.782 372.220,97.800 378.769 C 99.120 379.488,100.380 380.213,100.600 380.381 C 103.042 382.238,117.324 389.126,123.063 391.213 C 127.960 392.995,130.066 393.822,131.295 394.447 C 131.677 394.641,132.264 394.800,132.600 394.800 C 132.936 394.800,133.568 394.980,134.005 395.200 C 134.442 395.420,135.158 395.780,135.595 396.000 C 136.631 396.522,144.277 396.522,144.600 396.000 C 144.736 395.780,145.164 395.600,145.552 395.600 C 146.898 395.600,149.682 392.730,150.864 390.123 L 152.000 387.618 151.994 367.709 C 151.990 356.122,151.832 347.554,151.615 347.211 C 151.162 346.495,149.056 346.498,144.600 347.223 C 140.631 347.869,121.873 347.928,117.600 347.309 C 109.828 346.182,106.758 345.334,101.600 342.890 C 94.139 339.355,88.057 332.843,84.813 324.916 C 79.276 311.389,71.187 299.653,64.606 295.600 C 59.148 292.238,54.800 288.092,54.800 286.248 C 54.800 285.318,58.914 284.178,61.600 284.362 C 63.890 284.519,66.322 284.897,67.000 285.201 C 67.440 285.398,68.700 285.848,69.800 286.199 C 74.306 287.641,81.807 292.577,85.400 296.465 C 89.025 300.388,89.616 301.177,92.832 306.400 C 99.570 317.341,109.528 324.774,119.200 326.082 C 126.344 327.048,137.090 326.231,143.720 324.218 C 151.709 321.793,152.217 321.446,152.839 318.000 C 153.716 313.138,154.067 311.849,155.566 308.000 C 157.304 303.535,159.049 300.658,162.322 296.856 C 164.804 293.975,165.186 292.960,164.000 292.405 C 163.670 292.251,162.997 291.916,162.505 291.662 C 162.013 291.408,160.539 291.200,159.229 291.200 C 157.919 291.200,156.736 291.020,156.600 290.800 C 156.464 290.580,155.204 290.400,153.800 290.400 C 152.396 290.400,151.136 290.220,151.000 290.000 C 150.864 289.780,149.964 289.600,149.000 289.600 C 148.036 289.600,147.136 289.420,147.000 289.200 C 146.864 288.980,146.054 288.800,145.200 288.800 C 144.346 288.800,143.536 288.620,143.400 288.400 C 143.264 288.180,142.454 288.000,141.600 288.000 C 140.746 288.000,139.936 287.820,139.800 287.600 C 139.664 287.380,139.021 287.200,138.371 287.200 C 137.721 287.200,136.877 287.038,136.495 286.839 C 136.113 286.640,134.990 286.260,134.000 285.993 C 133.010 285.727,131.840 285.367,131.400 285.193 C 130.960 285.020,129.520 284.469,128.200 283.970 C 110.047 277.102,95.989 266.363,88.248 253.454 C 84.873 247.825,80.658 238.290,79.161 232.900 C 78.962 232.185,78.630 231.015,78.423 230.300 C 76.889 225.018,76.586 223.630,75.784 218.200 C 73.999 206.115,73.504 192.359,74.568 184.400 C 75.306 178.880,76.011 174.791,76.395 173.800 C 76.565 173.360,77.108 171.650,77.601 170.000 C 78.094 168.350,78.816 166.280,79.207 165.400 C 79.597 164.520,80.225 163.080,80.602 162.200 C 82.853 156.943,87.165 150.167,91.640 144.850 C 94.003 142.042,94.783 139.495,93.682 138.180 C 90.010 133.798,89.383 105.020,92.822 98.705 C 93.030 98.323,93.203 97.693,93.206 97.305 C 93.213 96.483,94.126 93.741,94.526 93.341 C 94.677 93.190,94.800 92.657,94.800 92.157 C 94.800 91.657,94.980 91.136,95.200 91.000 C 95.420 90.864,95.600 90.423,95.600 90.019 C 95.600 88.798,101.573 88.224,104.640 89.150 C 105.278 89.343,106.790 89.717,108.000 89.981 C 110.050 90.428,115.176 92.026,117.000 92.785 C 117.957 93.184,120.304 94.186,122.100 94.962 C 122.815 95.271,124.202 95.856,125.182 96.262 C 130.777 98.578,139.384 103.298,147.068 108.264 C 149.604 109.903,150.038 109.907,156.123 108.360 C 158.806 107.678,161.990 106.959,163.200 106.761 C 167.285 106.094,170.190 105.594,172.400 105.178 C 185.440 102.719,214.279 102.720,227.700 105.179 C 230.884 105.762,233.775 106.266,236.600 106.730 C 237.920 106.947,241.194 107.681,243.877 108.362 C 250.476 110.037,250.266 110.068,255.600 106.665 C 258.130 105.051,261.460 103.048,263.000 102.213 C 264.540 101.378,266.700 100.201,267.800 99.597 C 270.408 98.165,273.544 96.599,274.800 96.099 C 275.350 95.880,276.700 95.296,277.800 94.800 C 278.900 94.304,280.160 93.760,280.600 93.590 C 281.040 93.420,282.030 93.006,282.800 92.670 C 284.725 91.829,287.317 90.990,290.400 90.210 C 291.830 89.848,293.651 89.383,294.446 89.176 C 297.934 88.270,303.575 88.694,304.058 89.900 C 304.301 90.505,304.648 91.360,304.830 91.800 C 305.294 92.926,306.429 96.355,306.847 97.900 C 307.041 98.615,307.395 99.875,307.633 100.700 C 309.519 107.228,310.288 125.881,308.849 130.200 C 308.629 130.860,308.234 132.210,307.971 133.200 C 307.160 136.248,306.651 137.783,306.318 138.180 C 305.203 139.511,305.994 142.087,308.335 144.746 C 311.166 147.964,318.400 158.799,318.400 159.821 C 318.400 159.906,318.869 161.017,319.443 162.288 C 321.143 166.054,321.448 166.853,322.394 170.000 C 322.890 171.650,323.442 173.360,323.620 173.800 C 323.799 174.240,324.055 175.230,324.188 176.000 C 324.321 176.770,324.616 178.300,324.843 179.400 C 326.835 189.048,326.475 206.514,324.002 220.200 C 323.764 221.520,323.467 223.320,323.343 224.200 C 323.219 225.080,322.956 225.971,322.759 226.180 C 322.562 226.389,322.400 226.916,322.400 227.352 C 322.400 227.787,322.222 228.696,322.004 229.372 C 319.684 236.576,319.110 238.312,318.819 239.000 C 318.633 239.440,318.252 240.430,317.972 241.200 C 313.396 253.805,299.997 269.928,289.682 275.241 C 289.087 275.548,288.510 275.895,288.400 276.013 C 288.188 276.241,276.093 282.181,274.400 282.889 C 273.850 283.119,272.995 283.463,272.500 283.654 C 272.005 283.844,271.195 284.168,270.700 284.374 C 270.205 284.579,269.080 284.964,268.200 285.229 C 267.320 285.494,266.240 285.845,265.800 286.010 C 265.360 286.174,264.235 286.509,263.300 286.754 C 258.474 288.019,257.045 288.339,254.800 288.653 C 254.030 288.761,253.040 289.007,252.600 289.200 C 252.160 289.393,251.080 289.660,250.200 289.793 C 245.809 290.459,242.776 290.850,240.600 291.032 C 239.280 291.143,237.840 291.389,237.400 291.580 C 236.960 291.771,236.281 292.030,235.891 292.155 C 234.467 292.611,234.641 293.609,236.477 295.531 C 241.672 300.967,244.616 306.481,246.442 314.200 C 247.635 319.239,247.731 321.714,247.976 353.800 C 248.232 387.280,248.279 388.268,249.752 391.109 C 251.962 395.375,260.191 398.122,264.405 396.000 C 264.842 395.780,265.558 395.420,265.995 395.200 C 266.432 394.980,267.064 394.800,267.400 394.800 C 267.736 394.800,268.323 394.641,268.705 394.447 C 269.087 394.252,269.940 393.871,270.600 393.600 C 271.260 393.329,272.113 392.948,272.495 392.753 C 272.877 392.559,273.418 392.400,273.697 392.400 C 275.700 392.400,295.322 383.193,299.932 380.090 C 300.519 379.695,301.540 379.108,302.200 378.787 C 305.749 377.060,318.454 368.533,322.927 364.876 C 324.996 363.184,327.386 361.260,328.236 360.600 C 335.100 355.275,349.000 341.361,354.694 334.115 C 356.182 332.220,358.770 328.933,360.444 326.809 C 363.075 323.472,370.918 312.155,372.231 309.800 C 372.477 309.360,373.313 307.920,374.090 306.600 C 378.293 299.458,386.109 283.850,387.210 280.400 C 387.385 279.850,388.098 277.870,388.794 276.000 C 391.114 269.765,392.400 265.815,392.400 264.927 C 392.400 264.443,392.559 263.949,392.754 263.829 C 392.949 263.708,393.204 263.113,393.321 262.505 C 393.438 261.897,393.719 260.770,393.945 260.000 C 394.170 259.230,394.555 257.880,394.800 257.000 C 395.045 256.120,395.430 254.770,395.656 254.000 C 395.882 253.230,396.226 251.790,396.421 250.800 C 396.615 249.810,396.969 248.010,397.207 246.800 C 397.446 245.590,397.732 243.880,397.843 243.000 C 397.954 242.120,398.206 241.040,398.402 240.600 C 398.784 239.743,398.975 238.296,399.621 231.400 C 400.206 225.155,399.959 175.116,399.340 174.361 C 399.086 174.053,398.780 172.810,398.660 171.600 C 398.362 168.613,397.757 164.974,397.198 162.800 C 396.943 161.810,396.640 160.324,396.525 159.497 C 396.410 158.671,396.155 157.895,395.958 157.774 C 395.761 157.652,395.600 157.081,395.600 156.505 C 395.600 155.928,395.432 154.904,395.227 154.228 C 395.022 153.553,394.641 152.190,394.382 151.200 C 394.122 150.210,393.770 149.040,393.600 148.600 C 393.430 148.160,393.073 146.990,392.806 146.000 C 391.779 142.192,387.303 129.473,385.909 126.400 C 382.343 118.543,381.030 115.859,378.086 110.400 C 377.315 108.970,376.413 107.260,376.082 106.600 C 373.118 100.691,364.094 87.240,357.834 79.400 C 346.561 65.283,331.460 50.766,319.000 42.068 C 308.708 34.883,302.081 30.712,295.600 27.341 C 293.070 26.025,290.640 24.751,290.200 24.510 C 289.322 24.028,283.073 21.069,279.600 19.490 C 278.390 18.940,275.915 17.930,274.100 17.245 C 272.285 16.560,269.405 15.473,267.700 14.828 C 265.995 14.184,263.340 13.283,261.800 12.826 C 253.857 10.470,249.019 9.200,247.992 9.200 C 247.362 9.200,246.736 9.020,246.600 8.800 C 246.464 8.580,245.654 8.400,244.800 8.400 C 243.946 8.400,243.136 8.220,243.000 8.000 C 242.864 7.780,242.054 7.600,241.200 7.600 C 240.346 7.600,239.536 7.420,239.400 7.200 C 239.264 6.980,238.209 6.800,237.056 6.800 C 235.903 6.800,234.789 6.636,234.580 6.435 C 234.371 6.235,233.210 5.968,232.000 5.843 C 230.790 5.719,228.270 5.427,226.400 5.195 C 224.530 4.963,221.110 4.585,218.800 4.355 C 213.684 3.846,185.875 3.458,185.445 3.890 " stroke="none" fill="#040404" fill-rule="evenodd"></path><path id="path1" d="" stroke="none" fill="#080404" fill-rule="evenodd"></path></g></svg>