<svg id="svg" version="1.1" xmlns="http://www.w3.org/2000/svg" xmlns:xlink="http://www.w3.org/1999/xlink" width="400" height="300.23094688221704" viewBox="0, 0, 400,300.23094688221704"><g id="svgg"><path id="path0" d="M159.159 13.716 C 135.972 14.273,124.696 15.706,113.814 19.478 C 85.748 29.207,68.966 51.269,65.015 83.634 C 62.669 102.853,62.689 197.265,65.043 216.967 C 69.687 255.827,94.093 280.396,132.733 285.108 C 152.605 287.532,247.567 287.528,267.267 285.102 C 306.377 280.288,330.710 255.475,335.118 215.916 C 336.358 204.783,336.722 186.048,336.550 142.192 C 336.353 92.092,335.889 83.423,332.730 70.871 C 324.651 38.772,301.060 19.061,265.916 15.044 C 254.869 13.781,190.021 12.974,159.159 13.716 M242.042 38.439 C 259.257 38.991,266.614 39.669,273.050 41.296 C 294.475 46.712,306.766 60.881,310.200 84.118 C 312.687 100.948,312.783 198.299,310.329 215.315 C 306.507 241.820,292.040 256.566,266.146 260.349 C 248.972 262.858,152.660 262.952,134.685 260.477 C 106.705 256.626,91.580 239.961,89.198 210.360 C 87.237 185.997,87.663 99.457,89.818 84.384 C 93.153 61.054,105.423 46.787,126.877 41.293 C 133.388 39.626,142.623 38.825,160.961 38.339 C 169.581 38.110,234.269 38.190,242.042 38.439 M270.721 60.977 C 256.978 62.759,251.684 80.206,262.075 89.468 C 272.585 98.836,289.283 91.293,289.283 77.177 C 289.283 67.222,280.652 59.689,270.721 60.977 M195.495 80.062 C 136.286 84.136,108.334 155.564,149.150 198.490 C 187.092 238.394,254.441 220.811,268.004 167.460 C 279.698 121.460,242.661 76.817,195.495 80.062 M206.607 105.144 C 239.251 109.587,256.233 147.526,237.976 175.225 C 221.467 200.270,184.892 202.670,165.662 179.969 C 138.348 147.724,164.764 99.449,206.607 105.144 " stroke="none" fill="#050505" fill-rule="evenodd"></path><path id="path1" d="M0.000 150.150 L 0.000 300.300 200.000 300.300 L 400.000 300.300 400.000 150.150 L 400.000 0.000 200.000 0.000 L 0.000 0.000 0.000 150.150 M243.243 13.813 C 265.982 14.497,275.035 15.671,285.736 19.323 C 314.991 29.309,332.055 52.392,335.274 86.336 C 337.231 106.982,337.122 197.927,335.118 215.916 C 330.710 255.475,306.377 280.288,267.267 285.102 C 247.567 287.528,152.605 287.532,132.733 285.108 C 94.093 280.396,69.687 255.827,65.043 216.967 C 62.689 197.265,62.669 102.853,65.015 83.634 C 68.966 51.269,85.748 29.207,113.814 19.478 C 124.696 15.706,135.972 14.273,159.159 13.716 C 168.682 13.487,234.952 13.564,243.243 13.813 M160.961 38.339 C 142.623 38.825,133.388 39.626,126.877 41.293 C 105.423 46.787,93.153 61.054,89.818 84.384 C 87.118 103.268,87.329 201.109,90.105 217.840 C 94.223 242.655,109.187 256.967,134.685 260.477 C 152.660 262.952,248.972 262.858,266.146 260.349 C 292.040 256.566,306.507 241.820,310.329 215.315 C 312.249 202.002,312.759 121.645,311.102 93.393 C 309.026 57.965,292.154 41.186,256.456 39.048 C 243.582 38.277,180.844 37.811,160.961 38.339 M277.477 61.464 C 289.345 64.704,293.280 79.918,284.535 88.746 C 276.043 97.318,261.396 93.997,257.486 82.613 C 253.164 70.028,264.586 57.945,277.477 61.464 M210.738 80.806 C 266.714 89.313,289.829 158.057,250.450 198.908 C 216.750 233.868,158.171 224.590,136.949 180.931 C 112.239 130.097,154.827 72.308,210.738 80.806 M195.946 104.828 C 164.121 107.946,145.171 141.568,159.147 170.120 C 175.718 203.973,223.851 204.089,240.819 170.316 C 256.589 138.927,230.879 101.406,195.946 104.828 " stroke="none" fill="#fbfbfb" fill-rule="evenodd"></path></g></svg>